# xmcd
#
# Track frame offsets:
#	150
#	17457
#	29432
#	46557
#	65282
#	76132
#	86582
#	109632
#	124557
#	134432
#	145632
#	159382
#	172857
#	190182
#
# Disc length: 2718 seconds
#
# Revision: 0
# Processed by: cddbd v1.5.1PL0 Copyright (c) Steve Scherf et al.
# Submitted via: dBpowerAMP V4.0
#
DISCID=9d0a9c0e
DTITLE=Mill Street Blues Band - Ham 'n Eggs
DYEAR=1900
DGENRE=Blues
TTITLE0=My Baby's Got A Headache 
TTITLE1=I Want You
TTITLE2=Take A Look At You
TTITLE3=Sit Down Baby
TTITLE4=Something You Got
TTITLE5=She Walked Right In 
TTITLE6=Tell me
TTITLE7=Shake Em On Down
TTITLE8=The Big Question
TTITLE9=Take You All The Way
TTITLE10=Slippin' In
TTITLE11=Mr. Slowstring
TTITLE12=Something To Remember You By
TTITLE13=Late On In The Evening
EXTD=
EXTT0=
EXTT1=
EXTT2=
EXTT3=
EXTT4=
EXTT5=
EXTT6=
EXTT7=
EXTT8=
EXTT9=
EXTT10=
EXTT11=
EXTT12=
EXTT13=
PLAYORDER=
